<svg xmlns="http://www.w3.org/2000/svg" enable-background="new 0 0 1500 1500" viewBox="0 0 1500 1500" id="artificial-intelligence"><rect width="379.8" height="289.8" x="943.8" y="170.7" fill="none" stroke="#ffcd2c" stroke-miterlimit="10" stroke-width="1.994"></rect><rect width="146.7" height="46.8" x="219.8" y="1285.4" fill="#0876c1"></rect><polygon fill="#e68688" points="1208.9 796.7 952.9 1005.6 710.1 832.6 1114.2 689.3"></polygon><path fill="#d7ecff" d="M771.2 1173.4l-39.3-29.1 41.5-56 39.3 29.1c15.5 11.4 18.7 33.3 7.3 48.7l0 0C808.5 1181.6 786.7 1184.9 771.2 1173.4zM836.6 1133.8l-60.8-45 41.5-56 60.8 45c15.5 11.4 18.7 33.3 7.3 48.7l0 0C873.9 1142 852.1 1145.3 836.6 1133.8zM881.4 1078.3l-63.2-46.8 41.5-56 63.2 46.7c15.5 11.4 18.7 33.3 7.3 48.7l0 0C918.7 1086.5 896.9 1089.7 881.4 1078.3zM919.7 1017l-57.9-42.8 37.5-56 61.9 42.8c15.5 11.4 18.7 33.3 7.3 48.7l0 0C956.9 1025.2 935.1 1028.5 919.7 1017z"></path><path fill="#3a3a3a" d="M749 1157l-17.1-12.7 41.5-56 17.1 12.7c15.5 11.4 18.7 33.3 7.3 48.7l0 0C786.3 1165.2 764.5 1168.5 749 1157zM792.3 1101l-17.1-12.7 41.5-56 17.1 12.7c15.5 11.4 18.7 33.3 7.3 48.7l0 0C829.6 1109.2 807.8 1112.5 792.3 1101zM834.7 1043.8l-17.1-12.7 41.5-56 17.1 12.7c15.5 11.4 18.7 33.3 7.3 48.7l0 0C872 1051.9 850.2 1055.2 834.7 1043.8zM878 986.2l-17.1-12.7 37.5-56 21.1 12.7c15.5 11.4 18.7 33.3 7.3 48.7l0 0C915.3 994.4 893.5 997.7 878 986.2z"></path><path fill="#fff" stroke="#ffcd2c" stroke-miterlimit="10" stroke-width="3.988" d="M257.8,1102.2H110.4c-54.1,0-97.9-43.9-97.9-97.9V517.4c0-54.1,43.9-97.9,97.9-97.9h147.4
	c54.1,0,97.9,43.9,97.9,97.9v487C355.8,1058.4,312,1102.2,257.8,1102.2z"></path><path fill="#fff" stroke="#1772b9" stroke-miterlimit="10" stroke-width="3.988" d="M1394.7,1066.1h-147.4c-54.1,0-97.9-43.9-97.9-97.9V370.8c0-54.1,43.9-97.9,97.9-97.9h147.4
	c54.1,0,97.9,43.9,97.9,97.9v597.3C1492.7,1022.2,1448.8,1066.1,1394.7,1066.1z"></path><path fill="#d7ecff" d="M741,1152L429,941.6c-7.4-5-11-14-9.1-22.8l45-201.8c2.6-11.8,14.3-19.1,26.1-16.5l420.8,223.9L741,1152z"></path><path fill="#e68688" d="M1050.2,671.1c0,0-67.1,35.9-134.2,37.4c-67.1,1.6-149.8-9.4-167,0c-17.1,9.4-196.6,173.2-196.6,173.2
	s48.4,40.6,162.3-43.7c0,0,135.7,15.6,216.9-41.4c81.2-56.9,143.6-75.6,143.6-75.6L1050.2,671.1z"></path><path fill="#3a3a3a" d="M1341,480.4l-325.6,186.1c0,0,89.4,193.5,162.3,258l165.9-103.8L1341,480.4z"></path><path fill="#e68688" d="M466.6 1012.3L466.6 1012.3c-13.6-13.2-14.8-32.9-2.4-41.7l54.4-44.7c5.7-4 18.3 1.1 24.6 7.2l0 0c6.3 6.1 11.8 18.5 8 24.3l-42.8 55.9C500 1025.9 480.2 1025.5 466.6 1012.3zM532.1 1061.3L532.1 1061.3c-13.6-13.2-12.5-35.3 2.4-46.7l66.2-57c6.9-5.2 20.3-1 26.6 5.1l0 0c6.3 6.1 11 19.4 6 26.4l-54.7 68.2C567.8 1072.6 545.8 1074.5 532.1 1061.3zM596.6 1102.9L596.6 1102.9c-13.6-13.2-14-33.7-.8-43.4l58.5-49c6.1-4.4 19 .4 25.3 6.5l0 0c6.3 6.1 11.5 18.8 7.3 25l-46.9 60.1C630.8 1115.7 610.3 1116.1 596.6 1102.9zM660.7 1137.6L660.7 1137.6c-11-9-12-25.1-2-34l36.6-35.5c4.6-4.1 22-10.2 27.1-6.1l0 0c5.1 4.1 2.4 22.3-.7 27.6l-27.2 43.1C687.7 1144.3 671.7 1146.6 660.7 1137.6z"></path><rect width="122.7" height="70.5" x="338.4" y="771.2" fill="#3a3a3a" transform="rotate(-78.737 399.793 806.437)"></rect><path fill="#d7ecff" d="M150.8,559.7l1.4,287.1l197.6,21.9c11.4,2.1,22.3-5.4,24.5-16.7l20.3-105.3c1.7-8.7-2.2-17.4-9.8-22
	L150.8,559.7z"></path><rect width="147.7" height="29.1" x="359.5" y="798.5" fill="#0876c1" transform="rotate(-78.737 433.368 813.137)"></rect><rect width="56.1" height="94.8" x="682" y="408.2" fill="none" stroke="#0876c1" stroke-miterlimit="10" stroke-width="3.988"></rect><circle cx="219.8" cy="249" r="19.3" fill="#b74444"></circle><circle cx="1146.3" cy="1263.1" r="22.3" fill="#ffcd2c"></circle></svg>